<svg width="24" height="24" viewBox="0 0 24 24" fill="none" xmlns="http://www.w3.org/2000/svg">
<path d="M18.604 16.111C18.622 16.387 18.652 16.642 18.696 16.869C18.113 16.975 18.09 16.4 18.604 16.111ZM14.25 16.271H15.246L14.748 14.841L14.25 16.271V16.271ZM17 10.166C20.697 10.166 24 12.631 24 16.003C24 17.199 23.568 18.373 22.807 19.284C22.774 20.352 23.403 21.884 23.969 22.999C22.451 22.725 20.293 22.119 19.315 21.519C13.928 22.832 10 19.535 10 16.003C10 12.613 13.326 10.166 17 10.166ZM16.563 17.75L15.123 13.958H14.363L12.916 17.75H13.728L14.04 16.875H15.462L15.775 17.75H16.563ZM20.551 15.454L20.63 15.101L19.988 14.976L19.924 15.268C19.709 15.236 19.479 15.232 19.245 15.256L19.273 14.798H19.99V14.19H19.359L19.443 13.855L18.816 13.667C18.77 13.821 18.732 13.971 18.693 14.19H17.978V14.798H18.616C18.598 14.994 18.59 15.197 18.586 15.403C17.882 15.662 17.584 16.154 17.584 16.601C17.584 17.129 18 17.593 18.658 17.533C19.475 17.459 20.02 16.842 20.34 16.083C20.672 16.273 20.811 16.594 20.686 16.89C20.571 17.165 20.231 17.426 19.582 17.413V18.067C20.303 18.078 21.011 17.805 21.289 17.144C21.559 16.497 21.248 15.792 20.551 15.454V15.454ZM19.301 16.527C19.471 16.35 19.606 16.126 19.708 15.901C19.561 15.888 19.402 15.892 19.246 15.913C19.257 16.133 19.274 16.338 19.301 16.527ZM8.809 19.23C6.922 18.959 5.238 18.065 3.982 16.752C3.8 16.563 3.667 16.116 3.963 15.933L4.265 15.855C4.5 15.656 4.044 14.846 4.225 14.715C4.786 14.314 4.52 13.822 4.174 13.416C4.028 13.244 3.226 12.416 3.136 12.563C3.203 12.337 2.99 11.791 2.862 11.576C2.645 11.214 2.36 10.991 2.245 10.594C2.199 10.436 2.199 9.954 2.106 9.843C2.068 9.798 1.779 9.676 1.789 9.61C2.067 7.955 2.833 6.467 3.938 5.292L4.684 4.991C5.152 4.288 5.179 4.833 5.6 4.65C5.741 4.65 5.901 4.072 6.052 3.983C6.313 3.814 6.114 3.814 6.065 3.738C5.961 3.57 8.256 2.735 8.294 2.885C8.326 3.012 7.159 3.619 7.287 3.601C6.991 3.64 6.935 4.172 6.99 4.169C7.137 4.164 8.064 3.465 8.496 3.614C8.919 3.76 9.679 3.278 9.976 3.032C10.125 2.907 10.262 2.688 10.459 2.688C11.368 2.688 12.727 3.062 13.038 3.248C13.512 3.531 12.834 3.511 12.761 3.695C12.703 3.837 12.571 4.03 12.512 4.107C12.41 4.24 12.113 4.184 12.171 4.025C12.23 3.858 12.519 3.794 12.085 3.754C11.64 3.713 11.517 3.413 11.071 3.788C10.937 3.901 10.837 4.074 10.75 4.221C10.627 4.431 10.33 4.422 10.206 4.617C10.086 4.809 10.276 5.129 10.51 4.988C10.572 4.95 11.275 5.633 11.184 5.083C11.125 4.719 11.38 4.471 11.385 4.196C11.388 4.012 11.665 4.13 11.591 4.226C11.494 4.347 11.388 4.76 11.642 4.78C11.738 4.788 11.981 4.622 12.067 4.696C11.971 4.694 11.752 5.079 11.767 5.072C11.659 5.12 11.534 5.051 11.617 5.282C11.691 5.51 11.209 5.483 11.122 5.529C11.085 5.549 10.705 5.415 10.714 5.501C10.583 5.392 10.751 5.122 10.642 5.079C10.532 5.247 10.584 5.591 10.348 5.591C10.146 5.591 9.866 5.82 9.744 5.96C9.657 6.057 9.135 6.268 9.078 6.262C9.377 6.293 9.364 6.512 9.339 6.699C9.279 7.132 8.344 6.731 8.383 6.895C8.421 7.053 8.276 7.481 8.244 7.619C8.215 7.744 8.646 7.824 8.622 7.886C8.624 7.879 9.205 7.687 9.262 7.636L9.393 7.343C9.503 7.27 9.619 7.21 9.743 7.164L9.892 6.906C9.942 6.886 10.537 6.794 10.578 6.814C10.727 6.882 11.006 7.167 11.11 7.297C11.146 7.344 11.337 7.414 11.337 7.485C11.406 7.592 11.286 7.633 11.331 7.708C11.435 7.901 11.463 7.307 11.418 7.418C11.418 7.229 11.56 7.489 11.592 7.467L10.935 6.813C10.731 6.471 11.478 6.996 11.575 7.06C11.671 7.123 11.86 7.689 12.112 7.561C12.27 7.481 12.108 7.422 12.218 7.332L12.667 7.242C12.31 7.503 12.946 7.844 12.849 7.798C13.009 7.872 13.103 7.74 13.203 7.777C13.26 7.799 13.866 7.792 13.769 7.695C13.92 7.771 13.851 8.443 13.725 8.546C13.521 8.715 12.543 8.646 12.326 8.489C11.965 8.227 12.029 8.768 11.853 8.841C11.509 8.983 10.996 8.378 10.635 8.359C10.811 8.385 10.65 7.914 10.65 7.881C10.511 7.71 9.63 7.9 9.398 7.931C8.964 7.989 8.508 7.983 8.175 8.255C7.941 8.444 7.938 8.755 7.698 8.906C7.542 9.001 7.373 8.97 7.242 9.095C7.008 9.317 6.738 9.647 6.605 9.94C6.551 10.063 6.677 10.356 6.646 10.514C6.339 11.481 6.722 12.822 7.894 12.97C8.144 13.002 8.4 13.114 8.653 13.087C9.985 10.207 13.221 8.167 17 8.167C17.932 8.167 18.831 8.291 19.678 8.521C18.573 4.199 14.666 1 10 1C4.477 1 0 5.477 0 11C0 16.523 4.477 21 10 21L10.074 20.996C9.565 20.463 9.143 19.868 8.809 19.23V19.23ZM13.587 6.195C13.655 6.187 13.498 6.333 13.498 6.333C13.525 6.545 13.681 6.66 13.977 6.768C14.337 6.897 14.007 7.143 13.801 7.085C13.687 7.053 13.097 6.875 13.076 7.106C13.076 7.244 12.516 7.107 12.603 6.961C12.664 6.863 12.644 6.642 12.755 6.497C12.915 6.287 13.068 6.401 13.073 6.523C13.075 6.85 13.405 6.217 13.587 6.195V6.195ZM9.055 5.903C9.135 6.016 9.743 5.74 9.646 5.757C9.833 5.663 9.67 5.653 9.564 5.598C9.529 5.419 9.499 5.142 9.387 5.032L9.461 4.947C9.288 4.698 9.16 5.249 9.16 5.249L9.25 5.223L9.208 5.336C9.279 5.465 9.227 5.543 9.215 5.613L9.091 5.69C9.046 5.745 9.306 5.752 9.308 5.761C9.317 5.789 8.995 5.835 9.055 5.903V5.903ZM8.659 5.617C8.59 5.688 8.661 5.733 8.732 5.702C8.836 5.657 8.976 5.658 8.992 5.519L9.058 5.435C9.087 5.392 9.001 5.321 8.966 5.314L8.842 5.4L8.781 5.416L8.725 5.488L8.731 5.528L8.659 5.617V5.617ZM11.293 7.724C11.238 7.724 10.924 7.753 10.953 7.808C11.131 8.101 11.356 7.732 11.293 7.724Z" fill="#339989"/>
</svg>
